<svg width="52" height="52" viewBox="0 0 52 52" fill="none" xmlns="http://www.w3.org/2000/svg">
<mask id="path-1-outside-1_1241_1894" maskUnits="userSpaceOnUse" x="-0.119141" y="0.015625" width="52" height="52" fill="black">
<rect fill="white" x="-0.119141" y="0.015625" width="52" height="52"/>
<path d="M3.88086 10.3467C3.88086 6.85013 6.71537 4.01562 10.2119 4.01562H41.5498C45.0463 4.01562 47.8809 6.85013 47.8809 10.3467V41.6846C47.8809 45.1811 45.0464 48.0156 41.5498 48.0156H10.2119C6.71537 48.0156 3.88086 45.1811 3.88086 41.6846V10.3467Z"/>
</mask>
<path d="M10.2119 7.74444H41.5498V0.286811H10.2119V7.74444ZM44.152 10.3467V41.6846H51.6097V10.3467H44.152ZM41.5498 44.2868H10.2119V51.7444H41.5498V44.2868ZM7.60967 41.6846V10.3467H0.152046V41.6846H7.60967ZM10.2119 44.2868C8.77473 44.2868 7.60967 43.1217 7.60967 41.6846H0.152046C0.152046 47.2405 4.656 51.7444 10.2119 51.7444V44.2868ZM44.152 41.6846C44.152 43.1217 42.987 44.2868 41.5498 44.2868V51.7444C47.1057 51.7444 51.6097 47.2405 51.6097 41.6846H44.152ZM41.5498 7.74444C42.987 7.74444 44.152 8.9095 44.152 10.3467H51.6097C51.6097 4.79076 47.1057 0.286811 41.5498 0.286811V7.74444ZM10.2119 0.286811C4.656 0.286811 0.152046 4.79077 0.152046 10.3467H7.60967C7.60967 8.9095 8.77473 7.74444 10.2119 7.74444V0.286811Z" fill="#1976d2" mask="url(#path-1-outside-1_1241_1894)"/>
<path fill-rule="evenodd" clip-rule="evenodd" d="M32.0164 8.49219H13.5758C10.6927 8.49219 8.35547 10.8294 8.35547 13.7125V38.3227C8.35547 41.2058 10.6927 43.543 13.5758 43.543H38.186C41.0691 43.543 43.4063 41.2058 43.4063 38.3227V13.7125C43.4063 12.126 42.6986 10.7047 41.5815 9.74729L32.265 25.884L24.6933 30.0873L24.5477 21.4283L32.0164 8.49219Z" fill="#1976d2"/>
</svg>
